<svg xmlns:dc="http://purl.org/dc/elements/1.1/" xmlns:cc="http://creativecommons.org/ns#" xmlns:rdf="http://www.w3.org/1999/02/22-rdf-syntax-ns#" xmlns:svg="http://www.w3.org/2000/svg" xmlns="http://www.w3.org/2000/svg" xmlns:sodipodi="http://sodipodi.sourceforge.net/DTD/sodipodi-0.dtd" xmlns:inkscape="http://www.inkscape.org/namespaces/inkscape" version="1.1" x="0px" y="0px" viewBox="0 0 100 100"><g transform="translate(0,-952.36218)"><path style="opacity:1;color:#000000;fill:#000000;stroke:none;stroke-width:3.99999927999999990;stroke-linecap:round;stroke-linejoin:round;stroke-miterlimit:4;stroke-opacity:1;stroke-dasharray:none;stroke-dashoffset:0;marker:none;visibility:visible;display:inline;overflow:visible;enable-background:accumulate" d="M 18 8 C 15.23 8 13 10.23 13 13 C 13 15.77 15.23 18 18 18 L 71 18 L 71 8 L 18 8 z M 13 20.4375 L 13 77 C 13 79.77 15.23 82 18 82 L 21 82 L 21 22 L 18 22 C 16.156196 22 14.437984 21.414533 13 20.4375 z M 25 22 L 25 82 L 48.5625 82 L 71 38.96875 L 71 22 L 25 22 z M 34.625 29 A 2.0049378 2.0049378 0 0 1 34.71875 29 A 2.0021961 2.0021961 0 0 1 34.8125 29 A 2.0001998 2.0001998 0 0 1 35 29 L 59 29 A 2.0001998 2.0001998 0 1 1 59 33 L 35 33 A 2.0049378 2.0049378 0 0 1 34.625 29 z M 39.625 38 A 2.0049378 2.0049378 0 0 1 39.71875 38 A 2.0021961 2.0021961 0 0 1 39.8125 38 A 2.0001998 2.0001998 0 0 1 40 38 L 54 38 A 2.0001998 2.0001998 0 1 1 54 42 L 40 42 A 2.0049378 2.0049378 0 0 1 39.625 38 z M 76 38 L 52 84 L 53 92 L 61 89 L 80.03125 52.53125 L 84.28125 54.8125 L 76.21875 70.0625 C 75.727642 70.99518 76.129726 72.290318 77.0625 72.78125 C 77.995272 73.272183 79.290493 72.870364 79.78125 71.9375 L 88.78125 54.9375 C 89.278923 54.006359 88.8749 52.704522 87.9375 52.21875 L 81.875 49 L 85 43 L 76 38 z M 71 78.4375 L 69.15625 82 L 71 82 L 71 78.4375 z " transform="translate(0,952.36218)"/></g><!-- Created by bezier master from the Noun Project --></svg>
